<svg width="264" height="264" fill="none" xmlns="http://www.w3.org/2000/svg"><g filter="url(#filter0_d)"><mask id="a" fill="#fff"><path fill-rule="evenodd" clip-rule="evenodd" d="M105.956 0H12a8 8 0 00-8 8v240a8 8 0 008 8h.093L105.956 0zM82.693 256H75.5l-6.802-2.531 19.607-52.694 2.83-7.605 7.108 3.915 33.724 18.575 32.995-18.546 7.063-3.969 2.902 7.564 20.22 52.693-6.77 2.598h-7.229l-16.389-42.712-29.328 16.484-3.396 1.909-3.411-1.879-30.028-16.539L82.693 256zm168.411 0H252a8 8 0 008-8V8a8 8 0 00-8-8h-94.759l93.863 256zm-92.82-105.567L132 79.175l-26.284 71.258h52.568z"/></mask><path fill-rule="evenodd" clip-rule="evenodd" d="M105.956 0H12a8 8 0 00-8 8v240a8 8 0 008 8h.093L105.956 0zM82.693 256H75.5l-6.802-2.531 19.607-52.694 2.83-7.605 7.108 3.915 33.724 18.575 32.995-18.546 7.063-3.969 2.902 7.564 20.22 52.693-6.77 2.598h-7.229l-16.389-42.712-29.328 16.484-3.396 1.909-3.411-1.879-30.028-16.539L82.693 256zm168.411 0H252a8 8 0 008-8V8a8 8 0 00-8-8h-94.759l93.863 256zm-92.82-105.567L132 79.175l-26.284 71.258h52.568z" fill="#384A5E"/><path d="M105.956 0l1.877.688.986-2.688h-2.863v2zM12.093 256v2h1.397l.48-1.312-1.877-.688zm70.6 0v2h1.39l.485-1.303-1.875-.697zm-7.194 0l-.697 1.874.337.126h.36v-2zm-6.802-2.531l-1.874-.698-.698 1.875 1.875.697.697-1.874zm19.607-52.694l-1.874-.697 1.874.697zm2.83-7.605l.965-1.752-2.03-1.118-.81 2.173 1.875.697zm7.108 3.915l.965-1.752-.965 1.752zm33.724 18.575l-.965 1.751.974.537.97-.545-.979-1.743zm32.995-18.546l.98 1.744-.98-1.744zm7.063-3.969l1.867-.717-.829-2.161-2.018 1.134.98 1.744zm2.902 7.564l-1.867.716 1.867-.716zm20.22 52.693l.716 1.868 1.867-.717-.716-1.867-1.867.716zm-6.77 2.598v2h.371l.346-.133-.717-1.867zm-7.229 0l-1.867.717.492 1.283h1.375v-2zm-16.389-42.712l1.867-.716-.829-2.161-2.018 1.134.98 1.743zm-29.328 16.484l-.98-1.743.98 1.743zm-3.396 1.909l-.964 1.751.974.537.97-.545-.98-1.743zm-3.411-1.879l.965-1.752-.965 1.752zm-30.028-16.539l.965-1.752-2.03-1.119-.81 2.173 1.875.698zM251.104 256l-1.878.688.481 1.312h1.397v-2zM157.241 0v-2h-2.863l.986 2.688L157.241 0zM132 79.175l1.876-.692L132 73.396l-1.876 5.087 1.876.692zm26.284 71.258v2h2.87l-.993-2.692-1.877.692zm-52.568 0l-1.877-.692-.993 2.692h2.87v-2zM12 2h93.956v-4H12v4zM6 8a6 6 0 016-6v-4C6.477-2 2 2.477 2 8h4zm0 240V8H2v240h4zm6 6a6 6 0 01-6-6H2c0 5.523 4.477 10 10 10v-4zm.093 0H12v4h.093v-4zm1.878 2.688l93.862-256-3.755-1.376-93.863 256 3.756 1.376zM82.693 254H75.5v4h7.194v-4zM68 255.343l6.802 2.531 1.395-3.748-6.802-2.531L68 255.343zm18.43-55.265l-19.607 52.693 3.749 1.395 19.607-52.693-3.75-1.395zm2.83-7.605l-2.83 7.605 3.749 1.395 2.83-7.605-3.75-1.395zm9.947 2.86l-7.108-3.915-1.93 3.504 7.108 3.915 1.93-3.504zm33.723 18.575l-33.723-18.575-1.93 3.504L131 217.411l1.929-3.503zm31.051-18.537l-32.995 18.545 1.959 3.487 32.996-18.545-1.96-3.487zm7.063-3.97l-7.063 3.97 1.96 3.487 7.062-3.97-1.959-3.487zm5.749 8.591l-2.902-7.564-3.735 1.433 2.903 7.564 3.734-1.433zm20.22 52.694l-20.22-52.694-3.734 1.433 20.219 52.694 3.735-1.433zm-7.92 5.181l6.769-2.597-1.433-3.735-6.769 2.598 1.433 3.734zm-.717-3.867h-7.229v4h7.229v-4zm-25.485-39.995l16.389 42.712 3.734-1.434-16.389-42.711-3.734 1.433zm-26.481 17.511l29.328-16.484-1.96-3.487-29.328 16.484 1.96 3.487zm-3.396 1.908l3.396-1.908-1.96-3.487-3.395 1.908 1.959 3.487zm-5.356-1.871l3.412 1.879 1.929-3.503-3.411-1.879-1.93 3.503zM97.63 215.015l30.028 16.538 1.93-3.503-30.028-16.539-1.93 3.504zm-13.062 41.682l15.902-42.737-3.75-1.395-15.901 42.738 3.749 1.394zM252 254h-.896v4H252v-4zm6-6a6 6 0 01-6 6v4c5.523 0 10-4.477 10-10h-4zm0-240v240h4V8h-4zm-6-6a6 6 0 016 6h4c0-5.523-4.477-10-10-10v4zm-94.759 0H252v-4h-94.759v4zM155.364.688l93.862 256 3.756-1.376-93.863-256-3.755 1.376zm-25.24 79.18l26.284 71.257 3.753-1.384-26.285-71.258-3.752 1.384zm-22.532 71.257l26.284-71.258-3.752-1.384-26.285 71.258 3.753 1.384zm50.692-2.692h-52.568v4h52.568v-4z" fill="#4ECC8D" mask="url(#a)"/></g><defs><filter id="filter0_d" x="0" y="0" width="264" height="264" filterUnits="userSpaceOnUse" color-interpolation-filters="sRGB"><feFlood flood-opacity="0" result="BackgroundImageFix"/><feColorMatrix in="SourceAlpha" values="0 0 0 0 0 0 0 0 0 0 0 0 0 0 0 0 0 0 127 0"/><feOffset dy="4"/><feGaussianBlur stdDeviation="2"/><feColorMatrix values="0 0 0 0 0 0 0 0 0 0 0 0 0 0 0 0 0 0 0.25 0"/><feBlend in2="BackgroundImageFix" result="effect1_dropShadow"/><feBlend in="SourceGraphic" in2="effect1_dropShadow" result="shape"/></filter></defs></svg>